<svg xmlns="http://www.w3.org/2000/svg"  viewBox="0 0 48 48" width="96px" height="96px" baseProfile="basic"><linearGradient id="xx7kthcCVBhqLqXwV2umWa" x1="3.993" x2="48.808" y1="3.993" y2="48.808" gradientUnits="userSpaceOnUse"><stop offset="0" stop-color="#05acb3"/><stop offset="1" stop-color="#038387"/></linearGradient><path fill="url(#xx7kthcCVBhqLqXwV2umWa)" d="M42,10.5v27c0,2.48-2.02,4.5-4.5,4.5h-27C8.02,42,6,39.98,6,37.5v-27C6,8.02,8.02,6,10.5,6h27	C39.98,6,42,8.02,42,10.5z"/><polygon fill="#fff" points="37.5,17 34.5,20.5 31.5,17 29,17 29,27 31.5,27 31.5,21 34.5,24 37.5,21 37.5,27 40,27 40,17"/><path fill="#fff" d="M16.114,27H18.5l-3.818-10h-2.864L8,27h2.386l0.764-2h4.2L16.114,27z M11.914,23l1.336-3.5l1.336,3.5	H11.914z"/><path fill="#fff" d="M26.583,24c-0.472-1-0.944-1.5-0.944-1.5s1.417-1,1.417-2.5s-0.944-3-2.833-3h-2.361h-0.472H19.5v10	h2.361v-4h0.944c0.472,0,0.944,0.5,2.361,4H28C28,27,27.056,25,26.583,24z M23.514,21h-0.708h-0.944v-2h0.361h1.292	c0.522,0,0.944,0.448,0.944,1C24.458,20.552,24.036,21,23.514,21z"/><rect width="32" height="2" x="8" y="29" fill="#fff"/></svg>