<svg xmlns="http://www.w3.org/2000/svg" xmlns:xlink="http://www.w3.org/1999/xlink" viewBox="0,0,256,256" width="96px" height="96px" fill-rule="nonzero"><g fill="#635bff" fill-rule="nonzero" stroke="none" stroke-width="1" stroke-linecap="butt" stroke-linejoin="miter" stroke-miterlimit="10" stroke-dasharray="" stroke-dashoffset="0" font-family="none" font-weight="none" font-size="none" text-anchor="none" style="mix-blend-mode: normal"><g transform="scale(5.33333,5.33333)"><path d="M11.5,6c-3.01977,0 -5.5,2.48023 -5.5,5.5v25c0,3.01977 2.48023,5.5 5.5,5.5h25c3.01977,0 5.5,-2.48023 5.5,-5.5v-25c0,-3.01977 -2.48023,-5.5 -5.5,-5.5zM11.5,9h25c1.39823,0 2.5,1.10177 2.5,2.5v25c0,1.39823 -1.10177,2.5 -2.5,2.5h-25c-1.39823,0 -2.5,-1.10177 -2.5,-2.5v-25c0,-1.39823 1.10177,-2.5 2.5,-2.5zM24.5,13c-5.905,0 -8,3.502 -8,6.5c0,4.522 4.2648,5.94259 6.4668,6.55859c2.447,0.721 2.5332,1.76589 2.5332,2.21289c0,0.583 -0.24083,0.9702 -0.42383,1.1582c-0.524,0.542 -1.45144,0.64587 -2.39844,0.54687c-2.065,-0.217 -4.16698,-1.01072 -5.33398,-1.51172c-0.164,-0.071 -0.34375,0.05147 -0.34375,0.23047v4.66211c0,0.213 0.12908,0.40266 0.33008,0.47266c1.735,0.6 3.96092,1.16992 6.16992,1.16992c5.905,0 8,-3.636 8,-6.75c0,-3.265 -2.19072,-5.55736 -6.51172,-6.81836c-2.477,-0.753 -2.48828,-1.60919 -2.48828,-1.99219c0,-0.466 0.22767,-0.78536 0.38867,-0.94336c0.496,-0.489 1.51131,-0.57798 2.44531,-0.45898c2.064,0.183 4.15731,0.98028 5.32031,1.48828c0.164,0.072 0.3457,-0.05047 0.3457,-0.23047v-4.65234c0,-0.213 -0.12908,-0.40266 -0.33008,-0.47266c-1.735,-0.599 -3.96092,-1.16992 -6.16992,-1.16992z"></path></g></g></svg>